<svg xmlns="http://www.w3.org/2000/svg" viewBox="0 0 64 64" width="64" height="64">
  <!-- Fondo transparente para enfocarnos en las letras -->
  
  <!-- Letras "A" y "G" fusionadas con estilo moderno -->
  <path d="M16,16 L16,48 L24,48 L24,40 L32,40 L32,32 L24,32 L24,24 L32,24 L32,16 L16,16 Z" fill="none" stroke="#2ecc71" stroke-width="4"/>
  <path d="M40,16 L40,24 L48,24 L48,32 L40,32 L40,40 L48,40 L48,48 L56,48 L56,16 L40,16 Z" fill="none" stroke="#3498db" stroke-width="4"/>
  <path d="M24,24 L24,32 L32,32 L32,24 L24,24 Z" fill="none" stroke="#1a1a1a" stroke-width="4"/>
  <path d="M40,24 L40,32 L48,32 L48,24 L40,24 Z" fill="none" stroke="#1a1a1a" stroke-width="4"/>
</svg>